<svg xmlns="http://www.w3.org/2000/svg" xmlns:xlink="http://www.w3.org/1999/xlink" width="1920" height="983.63" viewBox="0 0 1920 983.63">
  <defs>
    <linearGradient id="gradient-1" x1="1792.11" y1="107.57" x2="1725.47" y2="-129.11" gradientTransform="translate(0 984)" gradientUnits="userSpaceOnUse">
      <stop offset="0" stop-color="#cc45ac"/>
      <stop offset="1" stop-color="#483b74"/>
    </linearGradient>
    <linearGradient id="gradient-2" x1="648.07" y1="1039.74" x2="629.69" y2="1320.08" gradientTransform="matrix(1, 0, 0, -1, 0, 1902)" xlink:href="#gradient-1"/>
    <linearGradient id="gradient-3" x1="665.46" y1="257.22" x2="301.03" y2="484.13" gradientTransform="matrix(1, 0, 0, -1, 0, 918)" gradientUnits="userSpaceOnUse">
      <stop offset="0" stop-color="#f24ec6"/>
      <stop offset="1" stop-color="#a651ad"/>
    </linearGradient>
    <linearGradient id="gradient-4" x1="2478.04" y1="-191.83" x2="357.88" y2="-767.83" xlink:href="#gradient-1"/>
    <clipPath id="shape-1">
      <path d="M1920,753.8c-69.3,11.7-426,71-426,71S1612.2,998.5,1822.6,936a481.09,481.09,0,0,1,97.4-18.6Z"></path>
    </clipPath>
    <clipPath id="shape-2">
      <path d="M835.1,497.8,327.6,553.6c1.2,0-197.6,33.1-327.6,54.7V719.8c54.4,28,127.9,44.9,218.6,18,210.5-62.6,312,48.4,410.2-36s219.1-33.6,375.4-24.3,247.3-53.6,265.1-73.2S835.1,497.8,835.1,497.8Z"></path>
    </clipPath>
    <clipPath id="shape-3">
      <path d="M69.9,583.3c32.5,48.4,55.7,93.2,120,93.2,101.3,0,190.6,94.1,289.5,95.4,108.4,1.4,178.4-40.9,275-40.9,107.5,0,266.9-67,317.7,55.8l.7-203.5Z"></path>
    </clipPath>
    <clipPath id="shape-4">
      <path d="M0,0V759.5c176.9-72.8,385.4-156.7,547.8-38.8,208.5,151.4,369.7,91,445.8,111,99.3,26.1,76.6,105,211.4,142.6,140.2,39.1,392.3-56.6,496.2-68.7,80.9-9.5,163.4.3,218.8,34.8V0Z"></path>
    </clipPath>
    <filter id="noise">
      <feTurbulence type="fractalNoise" baseFrequency="150" result="noisy" />
      <feColorMatrix type="saturate" values="0"/>
      <feBlend in="SourceGraphic" in2="noisy" mode="multiply" />
    </filter>
  </defs>
  <path filter="url(#noise)" clip-path="url(#shape-1)" d="M1920,753.8c-69.3,11.7-426,71-426,71S1612.2,998.5,1822.6,936a481.09,481.09,0,0,1,97.4-18.6Z" style="fill:url(#gradient-1)"/>
  <path filter="url(#noise)" clip-path="url(#shape-2)" d="M835.1,497.8,327.6,553.6c1.2,0-197.6,33.1-327.6,54.7V719.8c54.4,28,127.9,44.9,218.6,18,210.5-62.6,312,48.4,410.2-36s219.1-33.6,375.4-24.3,247.3-53.6,265.1-73.2S835.1,497.8,835.1,497.8Z" style="fill:url(#gradient-2)"/>
  <path filter="url(#noise)" clip-path="url(#shape-3)" d="M69.9,583.3c32.5,48.4,55.7,93.2,120,93.2,101.3,0,190.6,94.1,289.5,95.4,108.4,1.4,178.4-40.9,275-40.9,107.5,0,266.9-67,317.7,55.8l.7-203.5Z" style="fill:url(#gradient-3)"/>
  <path filter="url(#noise)" clip-path="url(#shape-4)" d="M0,0V759.5c176.9-72.8,385.4-156.7,547.8-38.8,208.5,151.4,369.7,91,445.8,111,99.3,26.1,76.6,105,211.4,142.6,140.2,39.1,392.3-56.6,496.2-68.7,80.9-9.5,163.4.3,218.8,34.8V0Z" style="fill:url(#gradient-4)"/>
</svg>