<?xml version="1.0" encoding="utf-8"?>
<!-- Svg Vector Icons : http://www.onlinewebfonts.com/icon -->
<!DOCTYPE svg PUBLIC "-//W3C//DTD SVG 1.1//EN" "http://www.w3.org/Graphics/SVG/1.1/DTD/svg11.dtd">
<svg version="1.1" xmlns="http://www.w3.org/2000/svg" xmlns:xlink="http://www.w3.org/1999/xlink" x="0px" y="0px" viewBox="0 0 1000 1000" enable-background="new 0 0 1000 1000" xml:space="preserve">
<metadata> Svg Vector Icons : http://www.onlinewebfonts.com/icon </metadata>
<g><path d="M500,10C229.3,10,10,229.5,10,500c0,270.7,219.5,490,490,490c270.7,0,490-219.5,490-490S770.7,10,500,10L500,10z M722.8,589.2H455.5c-24.7,0-44.5-20-44.5-44.5V277.5c0-24.7,20-44.5,44.5-44.5c24.5,0,44.5,20,44.5,44.5V500h222.8c24.5,0,44.5,20,44.5,44.5C767.2,569.2,747.5,589.2,722.8,589.2L722.8,589.2z"/></g>
</svg>